<mxfile host="65bd71144e">
    <diagram id="7PcAVwCFNQcPoO41kSfS" name="Page-1">
        <mxGraphModel dx="1002" dy="439" grid="1" gridSize="10" guides="1" tooltips="1" connect="1" arrows="1" fold="1" page="1" pageScale="1" pageWidth="827" pageHeight="1169" math="0" shadow="0">
            <root>
                <mxCell id="0"/>
                <mxCell id="1" parent="0"/>
                <mxCell id="13" value="" style="edgeStyle=none;html=1;" edge="1" parent="1" source="2" target="12">
                    <mxGeometry relative="1" as="geometry"/>
                </mxCell>
                <mxCell id="2" value="coder" style="whiteSpace=wrap;html=1;verticalAlign=top;" vertex="1" parent="1">
                    <mxGeometry x="50" y="180" width="630" height="330" as="geometry"/>
                </mxCell>
                <mxCell id="3" value="pycparser" style="whiteSpace=wrap;html=1;verticalAlign=top;" vertex="1" parent="1">
                    <mxGeometry x="102.17" y="530" width="98.92" height="40" as="geometry"/>
                </mxCell>
                <mxCell id="6" value="" style="group" vertex="1" connectable="0" parent="1">
                    <mxGeometry x="101.08" y="330" width="207.83" height="30" as="geometry"/>
                </mxCell>
                <mxCell id="5" value="ast parser" style="whiteSpace=wrap;html=1;verticalAlign=top;movable=1;resizable=1;rotatable=1;deletable=1;editable=1;connectable=1;" vertex="1" parent="6">
                    <mxGeometry width="207.83" height="30" as="geometry"/>
                </mxCell>
                <object label="" id="7">
                    <mxCell style="edgeStyle=none;html=1;entryX=0.5;entryY=0;entryDx=0;entryDy=0;" edge="1" parent="1" source="4" target="3">
                        <mxGeometry relative="1" as="geometry"/>
                    </mxCell>
                </object>
                <mxCell id="33" value="" style="edgeStyle=none;html=1;" edge="1" parent="1" source="8" target="30">
                    <mxGeometry relative="1" as="geometry"/>
                </mxCell>
                <mxCell id="8" value="graph" style="whiteSpace=wrap;html=1;verticalAlign=top;" vertex="1" parent="1">
                    <mxGeometry x="400" y="330" width="220" height="30" as="geometry"/>
                </mxCell>
                <mxCell id="11" value="" style="edgeStyle=none;html=1;" edge="1" parent="1" source="9" target="10">
                    <mxGeometry relative="1" as="geometry"/>
                </mxCell>
                <mxCell id="31" style="edgeStyle=none;html=1;entryX=0.5;entryY=1;entryDx=0;entryDy=0;" edge="1" parent="1" source="9" target="30">
                    <mxGeometry relative="1" as="geometry"/>
                </mxCell>
                <mxCell id="9" value="networkx" style="whiteSpace=wrap;html=1;verticalAlign=top;" vertex="1" parent="1">
                    <mxGeometry x="400" y="445" width="97.83" height="40" as="geometry"/>
                </mxCell>
                <mxCell id="10" value="networkx" style="whiteSpace=wrap;html=1;verticalAlign=top;" vertex="1" parent="1">
                    <mxGeometry x="400" y="530" width="100" height="40" as="geometry"/>
                </mxCell>
                <mxCell id="12" value="" style="ellipse;whiteSpace=wrap;html=1;verticalAlign=top;" vertex="1" parent="1">
                    <mxGeometry x="352.5" y="120" width="25" height="20" as="geometry"/>
                </mxCell>
                <mxCell id="24" value="" style="edgeStyle=none;html=1;entryX=0.5;entryY=1;entryDx=0;entryDy=0;" edge="1" parent="1" source="4" target="21">
                    <mxGeometry relative="1" as="geometry"/>
                </mxCell>
                <mxCell id="4" value="pycparser" style="whiteSpace=wrap;html=1;verticalAlign=top;movable=1;resizable=1;rotatable=1;deletable=1;editable=1;connectable=1;" vertex="1" parent="1">
                    <mxGeometry x="102.17000000000002" y="445" width="97.83" height="40" as="geometry"/>
                </mxCell>
                <mxCell id="20" value="" style="edgeStyle=none;html=1;" edge="1" parent="1" source="18" target="19">
                    <mxGeometry relative="1" as="geometry"/>
                </mxCell>
                <mxCell id="25" value="" style="edgeStyle=none;html=1;entryX=0.5;entryY=1;entryDx=0;entryDy=0;" edge="1" parent="1" source="18" target="21">
                    <mxGeometry relative="1" as="geometry"/>
                </mxCell>
                <mxCell id="18" value="libtooling" style="whiteSpace=wrap;html=1;verticalAlign=top;movable=1;resizable=1;rotatable=1;deletable=1;editable=1;connectable=1;" vertex="1" parent="1">
                    <mxGeometry x="211.08" y="445" width="97.83" height="40" as="geometry"/>
                </mxCell>
                <mxCell id="19" value="pycparser" style="whiteSpace=wrap;html=1;verticalAlign=top;" vertex="1" parent="1">
                    <mxGeometry x="211.07999999999998" y="530" width="98.92" height="40" as="geometry"/>
                </mxCell>
                <mxCell id="21" value="" style="ellipse;whiteSpace=wrap;html=1;verticalAlign=top;" vertex="1" parent="1">
                    <mxGeometry x="193.57999999999996" y="390" width="25" height="20" as="geometry"/>
                </mxCell>
                <mxCell id="26" value="" style="edgeStyle=none;html=1;" edge="1" parent="1" source="5" target="21">
                    <mxGeometry relative="1" as="geometry"/>
                </mxCell>
                <mxCell id="29" value="" style="edgeStyle=none;html=1;" edge="1" parent="1" source="27" target="28">
                    <mxGeometry relative="1" as="geometry"/>
                </mxCell>
                <mxCell id="32" style="edgeStyle=none;html=1;" edge="1" parent="1" source="27" target="30">
                    <mxGeometry relative="1" as="geometry"/>
                </mxCell>
                <mxCell id="27" value="G1" style="whiteSpace=wrap;html=1;verticalAlign=top;" vertex="1" parent="1">
                    <mxGeometry x="520" y="445" width="97.83" height="40" as="geometry"/>
                </mxCell>
                <mxCell id="28" value="G1" style="whiteSpace=wrap;html=1;verticalAlign=top;" vertex="1" parent="1">
                    <mxGeometry x="520" y="530" width="100" height="40" as="geometry"/>
                </mxCell>
                <mxCell id="30" value="" style="ellipse;whiteSpace=wrap;html=1;verticalAlign=top;" vertex="1" parent="1">
                    <mxGeometry x="497.5" y="390" width="25" height="20" as="geometry"/>
                </mxCell>
                <mxCell id="35" value="" style="group" vertex="1" connectable="0" parent="1">
                    <mxGeometry x="80" y="210" width="560" height="90" as="geometry"/>
                </mxCell>
                <mxCell id="36" value="app" style="whiteSpace=wrap;html=1;verticalAlign=top;movable=1;resizable=1;rotatable=1;deletable=1;editable=1;connectable=1;" vertex="1" parent="35">
                    <mxGeometry width="560" height="90" as="geometry"/>
                </mxCell>
                <mxCell id="37" value="" style="group" vertex="1" connectable="0" parent="35">
                    <mxGeometry x="22.17" y="30" width="107.83" height="30" as="geometry"/>
                </mxCell>
                <mxCell id="38" value="testmate" style="whiteSpace=wrap;html=1;verticalAlign=top;movable=1;resizable=1;rotatable=1;deletable=1;editable=1;connectable=1;" vertex="1" parent="37">
                    <mxGeometry width="107.83" height="30" as="geometry"/>
                </mxCell>
                <mxCell id="39" value="" style="group" vertex="1" connectable="0" parent="35">
                    <mxGeometry x="150" y="30" width="107.83" height="30" as="geometry"/>
                </mxCell>
                <mxCell id="40" value="codemate" style="whiteSpace=wrap;html=1;verticalAlign=top;movable=1;resizable=1;rotatable=1;deletable=1;editable=1;connectable=1;" vertex="1" parent="39">
                    <mxGeometry width="107.83" height="30" as="geometry"/>
                </mxCell>
                <mxCell id="41" value="" style="group" vertex="1" connectable="0" parent="35">
                    <mxGeometry x="272.5" y="30" width="107.83" height="30" as="geometry"/>
                </mxCell>
                <mxCell id="42" value="archmate" style="whiteSpace=wrap;html=1;verticalAlign=top;movable=1;resizable=1;rotatable=1;deletable=1;editable=1;connectable=1;" vertex="1" parent="41">
                    <mxGeometry width="107.83" height="30" as="geometry"/>
                </mxCell>
                <mxCell id="43" value="designmate" style="whiteSpace=wrap;html=1;verticalAlign=top;movable=1;resizable=1;rotatable=1;deletable=1;editable=1;connectable=1;" vertex="1" parent="35">
                    <mxGeometry x="400" y="30" width="107.83" height="30" as="geometry"/>
                </mxCell>
            </root>
        </mxGraphModel>
    </diagram>
</mxfile>